<svg width="176" height="45" viewBox="0 0 176 45" fill="none" xmlns="http://www.w3.org/2000/svg">
<path d="M55.5 0H30.5C29.1022 0 28.4033 0 27.8519 0.228361C27.1169 0.532843 26.5328 1.11687 26.2284 1.85195C26 2.40326 26 3.10218 26 4.5C26 5.89782 26 6.59674 26.2284 7.14805C26.5328 7.88313 27.1169 8.46716 27.8519 8.77164C28.4033 9 29.1022 9 30.5 9H36.4C36.9601 9 37.2401 9 37.454 9.10899C37.6422 9.20487 37.7951 9.35785 37.891 9.54601C38 9.75992 38 10.0399 38 10.6V40.2C38 41.8802 38 42.7202 38.327 43.362C38.6146 43.9265 39.0735 44.3854 39.638 44.673C40.2798 45 41.1198 45 42.8 45H43.2C44.8802 45 45.7202 45 46.362 44.673C46.9265 44.3854 47.3854 43.9265 47.673 43.362C48 42.7202 48 41.8802 48 40.2V10.6C48 10.0399 48 9.75992 48.109 9.54601C48.2049 9.35785 48.3578 9.20487 48.546 9.10899C48.7599 9 49.0399 9 49.6 9H55.5C56.8978 9 57.5967 9 58.148 8.77164C58.8831 8.46716 59.4672 7.88313 59.7716 7.14805C60 6.59674 60 5.89782 60 4.5C60 3.10218 60 2.40326 59.7716 1.85195C59.4672 1.11687 58.8831 0.532843 58.148 0.228361C57.5967 0 56.8978 0 55.5 0Z" fill="black"/>
<path fill-rule="evenodd" clip-rule="evenodd" d="M122.757 0C123.914 0 124.492 0 124.959 0.157357C125.846 0.45675 126.543 1.15356 126.843 2.04116C127 2.50767 127 3.08599 127 4.24264V4.58579C127 4.7544 127 4.83871 127.004 4.91994C127.041 5.60243 127.31 6.25181 127.767 6.7606C127.821 6.82116 127.881 6.88077 128 7C128.119 7.11923 128.179 7.17884 128.239 7.23317C128.748 7.68957 129.398 7.95855 130.08 7.99559C130.161 8 130.246 8 130.414 8H132.2C133.88 8 134.72 8 135.362 8.32698C135.926 8.6146 136.385 9.07354 136.673 9.63803C137 10.2798 137 11.1198 137 12.8V13.2C137 14.8802 137 15.7202 136.673 16.362C136.385 16.9265 135.926 17.3854 135.362 17.673C134.72 18 133.88 18 132.2 18H130.414C130.246 18 130.161 18 130.08 18.0044C129.398 18.0415 128.748 18.3104 128.239 18.7668C128.179 18.8212 128.119 18.8808 128 19C127.881 19.1192 127.821 19.1788 127.767 19.2394C127.31 19.7482 127.041 20.3976 127.004 21.0801C127 21.1613 127 21.2456 127 21.4142V21.5858C127 21.7544 127 21.8387 127.004 21.9199C127.041 22.6024 127.31 23.2518 127.767 23.7606C127.821 23.8212 127.881 23.8808 128 24C128.119 24.1192 128.179 24.1788 128.239 24.2332C128.748 24.6896 129.398 24.9585 130.08 24.9956C130.161 25 130.246 25 130.414 25H132.2C133.88 25 134.72 25 135.362 25.327C135.926 25.6146 136.385 26.0735 136.673 26.638C137 27.2798 137 28.1198 137 29.8V40.2C137 41.8802 137 42.7202 136.673 43.362C136.385 43.9265 135.926 44.3854 135.362 44.673C134.72 45 133.88 45 132.2 45H107.8C106.12 45 105.28 45 104.638 44.673C104.074 44.3854 103.615 43.9265 103.327 43.362C103 42.7202 103 41.8802 103 40.2V4.8C103 3.11984 103 2.27976 103.327 1.63803C103.615 1.07354 104.074 0.614601 104.638 0.32698C105.28 0 106.12 0 107.8 0H122.757ZM114.6 26C114.04 26 113.76 26 113.546 26.109C113.358 26.2049 113.205 26.3578 113.109 26.546C113 26.7599 113 27.0399 113 27.6V34.4C113 34.9601 113 35.2401 113.109 35.454C113.205 35.6422 113.358 35.7951 113.546 35.891C113.76 36 114.04 36 114.6 36H122.2C123.88 36 124.72 36 125.362 35.673C125.926 35.3854 126.385 34.9265 126.673 34.362C127 33.7202 127 32.8802 127 31.2V29.4142C127 29.2456 127 29.1613 126.996 29.0801C126.959 28.3976 126.69 27.7482 126.233 27.2394C126.179 27.1788 126.119 27.1192 126 27C125.881 26.8808 125.821 26.8212 125.761 26.7668C125.252 26.3104 124.602 26.0415 123.92 26.0044C123.839 26 123.754 26 123.586 26H114.6ZM114.6 9C114.04 9 113.76 9 113.546 9.10899C113.358 9.20487 113.205 9.35785 113.109 9.54601C113 9.75992 113 10.0399 113 10.6V15.4C113 15.9601 113 16.2401 113.109 16.454C113.205 16.6422 113.358 16.7951 113.546 16.891C113.76 17 114.04 17 114.6 17H123.586C123.754 17 123.839 17 123.92 16.9956C124.602 16.9585 125.252 16.6896 125.761 16.2332C125.821 16.1788 125.881 16.1192 126 16C126.119 15.8808 126.179 15.8212 126.233 15.7606C126.69 15.2518 126.959 14.6024 126.996 13.9199C127 13.8387 127 13.7544 127 13.5858V12.4142C127 12.2456 127 12.1613 126.996 12.0801C126.959 11.3976 126.69 10.7482 126.233 10.2394C126.179 10.1788 126.119 10.1192 126 10C125.881 9.88077 125.821 9.82116 125.761 9.76683C125.252 9.31043 124.602 9.04145 123.92 9.00441C123.839 9 123.754 9 123.586 9H114.6Z" fill="black"/>
<path fill-rule="evenodd" clip-rule="evenodd" d="M161.757 0C162.914 0 163.492 0 163.959 0.157357C164.846 0.45675 165.543 1.15356 165.843 2.04116C166 2.50767 166 3.08599 166 4.24264V4.58579C166 4.7544 166 4.83871 166.004 4.91994C166.041 5.60243 166.31 6.25181 166.767 6.7606C166.821 6.82116 166.881 6.88077 167 7C167.119 7.11923 167.179 7.17884 167.239 7.23317C167.748 7.68957 168.398 7.95855 169.08 7.99559C169.161 8 169.246 8 169.414 8H171.2C172.88 8 173.72 8 174.362 8.32698C174.926 8.6146 175.385 9.07354 175.673 9.63803C176 10.2798 176 11.1198 176 12.8V13.2C176 14.8802 176 15.7202 175.673 16.362C175.385 16.9265 174.926 17.3854 174.362 17.673C173.72 18 172.88 18 171.2 18H169.414C169.246 18 169.161 18 169.08 18.0044C168.398 18.0415 167.748 18.3104 167.239 18.7668C167.179 18.8212 167.119 18.8808 167 19C166.881 19.1192 166.821 19.1788 166.767 19.2394C166.31 19.7482 166.041 20.3976 166.004 21.0801C166 21.1613 166 21.2456 166 21.4142V21.5858C166 21.7544 166 21.8387 166.004 21.9199C166.041 22.6024 166.31 23.2518 166.767 23.7606C166.821 23.8212 166.881 23.8808 167 24C167.119 24.1192 167.179 24.1788 167.239 24.2332C167.748 24.6896 168.398 24.9585 169.08 24.9956C169.161 25 169.246 25 169.414 25H171.2C172.88 25 173.72 25 174.362 25.327C174.926 25.6146 175.385 26.0735 175.673 26.638C176 27.2798 176 28.1198 176 29.8V40.2C176 41.8802 176 42.7202 175.673 43.362C175.385 43.9265 174.926 44.3854 174.362 44.673C173.72 45 172.88 45 171.2 45H146.8C145.12 45 144.28 45 143.638 44.673C143.074 44.3854 142.615 43.9265 142.327 43.362C142 42.7202 142 41.8802 142 40.2V4.8C142 3.11984 142 2.27976 142.327 1.63803C142.615 1.07354 143.074 0.614601 143.638 0.32698C144.28 0 145.12 0 146.8 0H161.757ZM153.6 26C153.04 26 152.76 26 152.546 26.109C152.358 26.2049 152.205 26.3578 152.109 26.546C152 26.7599 152 27.0399 152 27.6V34.4C152 34.9601 152 35.2401 152.109 35.454C152.205 35.6422 152.358 35.7951 152.546 35.891C152.76 36 153.04 36 153.6 36H161.2C162.88 36 163.72 36 164.362 35.673C164.926 35.3854 165.385 34.9265 165.673 34.362C166 33.7202 166 32.8802 166 31.2V29.4142C166 29.2456 166 29.1613 165.996 29.0801C165.959 28.3976 165.69 27.7482 165.233 27.2394C165.179 27.1788 165.119 27.1192 165 27C164.881 26.8808 164.821 26.8212 164.761 26.7668C164.252 26.3104 163.602 26.0415 162.92 26.0044C162.839 26 162.754 26 162.586 26H153.6ZM153.6 9C153.04 9 152.76 9 152.546 9.10899C152.358 9.20487 152.205 9.35785 152.109 9.54601C152 9.75992 152 10.0399 152 10.6V15.4C152 15.9601 152 16.2401 152.109 16.454C152.205 16.6422 152.358 16.7951 152.546 16.891C152.76 17 153.04 17 153.6 17H162.586C162.754 17 162.839 17 162.92 16.9956C163.602 16.9585 164.252 16.6896 164.761 16.2332C164.821 16.1788 164.881 16.1192 165 16C165.119 15.8808 165.179 15.8212 165.233 15.7606C165.69 15.2518 165.959 14.6024 165.996 13.9199C166 13.8387 166 13.7544 166 13.5858V12.4142C166 12.2456 166 12.1613 165.996 12.0801C165.959 11.3976 165.69 10.7482 165.233 10.2394C165.179 10.1788 165.119 10.1192 165 10C164.881 9.88077 164.821 9.82116 164.761 9.76683C164.252 9.31043 163.602 9.04145 162.92 9.00441C162.839 9 162.754 9 162.586 9H153.6Z" fill="black"/>
<path d="M83.7574 0C84.914 0 85.4923 0 85.9588 0.157357C86.8464 0.45675 87.5432 1.15356 87.8426 2.04116C88 2.50767 88 3.08599 88 4.24264V4.58579C88 4.7544 88 4.83871 88.0044 4.91994C88.0415 5.60243 88.3104 6.25181 88.7668 6.7606C88.8212 6.82116 88.8808 6.88077 89 7C89.1192 7.11923 89.1788 7.17884 89.2394 7.23317C89.7482 7.68957 90.3976 7.95855 91.0801 7.99559C91.1613 8 91.2456 8 91.4142 8H93.2C94.8802 8 95.7202 8 96.362 8.32698C96.9265 8.6146 97.3854 9.07354 97.673 9.63803C98 10.2798 98 11.1198 98 12.8V40.2C98 41.8802 98 42.7202 97.673 43.362C97.3854 43.9265 96.9265 44.3854 96.362 44.673C95.7202 45 94.8802 45 93.2 45H92.8C91.1198 45 90.2798 45 89.638 44.673C89.0735 44.3854 88.6146 43.9265 88.327 43.362C88 42.7202 88 41.8802 88 40.2V37.8C88 36.1198 88 35.2798 87.673 34.638C87.3854 34.0735 86.9265 33.6146 86.362 33.327C85.7202 33 84.8802 33 83.2 33H76.6C76.0399 33 75.7599 33 75.546 33.109C75.3578 33.2049 75.2049 33.3578 75.109 33.546C75 33.7599 75 34.0399 75 34.6V40.2C75 41.8802 75 42.7202 74.673 43.362C74.3854 43.9265 73.9265 44.3854 73.362 44.673C72.7202 45 71.8802 45 70.2 45H69.8C68.1198 45 67.2798 45 66.638 44.673C66.0735 44.3854 65.6146 43.9265 65.327 43.362C65 42.7202 65 41.8802 65 40.2V4.8C65 3.11984 65 2.27976 65.327 1.63803C65.6146 1.07354 66.0735 0.614601 66.638 0.32698C67.2798 0 68.1198 0 69.8 0H83.7574ZM76.6 9C76.0399 9 75.7599 9 75.546 9.10899C75.3578 9.20487 75.2049 9.35785 75.109 9.54601C75 9.75992 75 10.0399 75 10.6V22.4C75 22.9601 75 23.2401 75.109 23.454C75.2049 23.6422 75.3578 23.7951 75.546 23.891C75.7599 24 76.0399 24 76.6 24H86.4C86.9601 24 87.2401 24 87.454 23.891C87.6422 23.7951 87.7951 23.6422 87.891 23.454C88 23.2401 88 22.9601 88 22.4V12.4142C88 12.2456 88 12.1613 87.9956 12.0801C87.9585 11.3976 87.6896 10.7482 87.2332 10.2394C87.1788 10.1788 87.1192 10.1192 87 10C86.8808 9.88077 86.8212 9.82116 86.7606 9.76683C86.2518 9.31043 85.6024 9.04145 84.9199 9.00441C84.8387 9 84.7544 9 84.5858 9H76.6Z" fill="black"/>
<path d="M18 0.00488281H13.4476C12.2626 0.00488281 11.1886 0.702485 10.7068 1.78517L8.28834 7.21971C7.80653 8.3024 6.73254 9 5.54748 9H3C1.34315 9 0 10.3431 0 12V16.002C0 17.6588 1.34315 19.002 3 19.002H4.39141C5.65652 19.002 6.78566 18.2083 7.21412 17.018L9.0591 11.8922C9.43869 10.8377 11 11.1101 11 12.2309V42.0049C11 43.6617 12.3431 45.0049 14 45.0049H18C19.6569 45.0049 21 43.6617 21 42.0049V3.00488C21 1.34803 19.6569 0.00488281 18 0.00488281Z" fill="black"/>
</svg>
